#define bFlightStartupLogo_width 128
#define bFlightStartupLogo_height 64
static char bFlightStartupLogo_bits[] = {
  0x02, 0x00, 0x00, 0x00, 0x00, 0x00, 0x00, 0x00, 0x00, 0x00, 0x00, 0x00, 
  0x00, 0x00, 0x00, 0xA0, 0x09, 0x00, 0x00, 0x00, 0x00, 0x00, 0x00, 0x00, 
  0x00, 0x00, 0x00, 0x00, 0x00, 0x00, 0x00, 0x90, 0x11, 0x00, 0x00, 0x00, 
  0x00, 0x00, 0x00, 0x00, 0x00, 0x00, 0x00, 0x00, 0x00, 0x00, 0x00, 0x84, 
  0x41, 0x00, 0x00, 0x00, 0x00, 0x00, 0x00, 0x00, 0x00, 0x00, 0x00, 0x00, 
  0x00, 0x00, 0x00, 0x82, 0x01, 0x00, 0x00, 0x00, 0x00, 0x00, 0x00, 0x00, 
  0x00, 0x00, 0x00, 0x00, 0x00, 0x00, 0x80, 0x80, 0x02, 0x02, 0x00, 0x00, 
  0x00, 0x00, 0x00, 0x00, 0x00, 0x00, 0x00, 0x00, 0x00, 0x00, 0x40, 0x40, 
  0x04, 0x04, 0x00, 0x00, 0x00, 0x00, 0x00, 0x00, 0x00, 0x00, 0x00, 0x00, 
  0x00, 0x00, 0x10, 0x30, 0x08, 0x10, 0x00, 0x00, 0x00, 0x00, 0x00, 0x00, 
  0x00, 0x00, 0x00, 0x00, 0x00, 0x00, 0x08, 0x10, 0x18, 0x40, 0x00, 0x00, 
  0x00, 0x00, 0x00, 0x00, 0x00, 0x00, 0x00, 0x00, 0x00, 0x00, 0x02, 0x38, 
  0x34, 0x80, 0x00, 0x00, 0x00, 0x00, 0x00, 0x00, 0x00, 0x00, 0x00, 0x00, 
  0x00, 0x00, 0x00, 0x24, 0x44, 0x00, 0x02, 0x00, 0x00, 0x00, 0x00, 0x00, 
  0x00, 0x00, 0x00, 0x00, 0x00, 0x40, 0x00, 0x21, 0x08, 0x01, 0x04, 0x24, 
  0x44, 0x88, 0x01, 0x00, 0x00, 0x00, 0x00, 0x00, 0x00, 0x10, 0x80, 0x10, 
  0x10, 0x00, 0x90, 0xFF, 0xFF, 0xFF, 0x1F, 0x00, 0x00, 0x00, 0x00, 0x00, 
  0x00, 0x08, 0x00, 0x08, 0x20, 0x88, 0xC1, 0xFF, 0x7F, 0x00, 0x3C, 0x00, 
  0x00, 0x00, 0x00, 0x00, 0x00, 0x82, 0x11, 0x04, 0x40, 0x20, 0x87, 0xFF, 
  0x7F, 0x00, 0x30, 0x00, 0x00, 0x00, 0x00, 0x00, 0x80, 0x60, 0x05, 0x22, 
  0xF4, 0x80, 0x15, 0xFE, 0x3F, 0x00, 0x20, 0x00, 0x00, 0x00, 0x00, 0x00, 
  0x20, 0xD8, 0x01, 0x27, 0x84, 0x01, 0x5E, 0xFC, 0x3F, 0x00, 0x60, 0x00, 
  0x00, 0x00, 0x00, 0x00, 0x1C, 0x7A, 0xC0, 0x20, 0x08, 0x04, 0xD8, 0xF9, 
  0x3F, 0xFC, 0x60, 0x00, 0x00, 0x00, 0x00, 0x00, 0x03, 0x0F, 0x20, 0x10, 
  0x18, 0x08, 0xE1, 0x80, 0x3F, 0xFE, 0x61, 0x00, 0x00, 0x00, 0x00, 0x60, 
  0x80, 0x03, 0x08, 0x08, 0x20, 0xFC, 0xFF, 0xFF, 0x3F, 0xFE, 0x21, 0x00, 
  0x00, 0x00, 0x00, 0x08, 0x40, 0x20, 0x04, 0x04, 0x40, 0xFC, 0xFF, 0xFF, 
  0xFF, 0xFE, 0x31, 0x00, 0x00, 0x00, 0x00, 0x05, 0x30, 0xD6, 0x01, 0x02, 
  0xC0, 0xFC, 0xFF, 0xFF, 0x3F, 0xFF, 0x31, 0x00, 0x00, 0x00, 0x80, 0x04, 
  0xCE, 0x3D, 0x00, 0x03, 0xF0, 0xFB, 0xFF, 0xFF, 0x1F, 0xFE, 0x30, 0x00, 
  0x00, 0x00, 0x40, 0xE0, 0x80, 0x03, 0xC0, 0x0B, 0x10, 0x1C, 0x85, 0xFF, 
  0x7F, 0xFF, 0x31, 0x00, 0x00, 0x00, 0x00, 0x06, 0x40, 0x00, 0x10, 0x04, 
  0x20, 0x20, 0x18, 0xFF, 0x1F, 0xFF, 0x30, 0x00, 0x00, 0x00, 0x20, 0x13, 
  0x00, 0x24, 0x06, 0x04, 0x40, 0x80, 0xFF, 0xFF, 0x9F, 0x7F, 0x18, 0x00, 
  0xC0, 0x00, 0x00, 0x30, 0xBC, 0xF9, 0x00, 0x03, 0x80, 0x01, 0xFC, 0xFF, 
  0x5F, 0x08, 0x18, 0xF8, 0xC3, 0x18, 0x00, 0x72, 0x60, 0x0F, 0x80, 0x00, 
  0x00, 0x03, 0xFC, 0xFF, 0x4F, 0x00, 0x0E, 0xF8, 0xC7, 0x38, 0x10, 0x74, 
  0xF0, 0x00, 0xE0, 0x00, 0x80, 0x1D, 0xFC, 0xFF, 0x5F, 0x00, 0x0F, 0x18, 
  0xC0, 0x10, 0x00, 0x7A, 0x10, 0x2C, 0x18, 0x01, 0x80, 0x60, 0xF8, 0xFF, 
  0x8F, 0x00, 0x0C, 0x18, 0xC0, 0x00, 0x00, 0x71, 0x8E, 0x0E, 0x03, 0x01, 
  0x80, 0x00, 0xFF, 0xFF, 0x8F, 0x1D, 0x08, 0x18, 0xC0, 0x00, 0x10, 0x73, 
  0x9E, 0x7F, 0x80, 0x00, 0x00, 0x03, 0xF0, 0xFF, 0xFF, 0x7F, 0x0C, 0x18, 
  0xC0, 0x18, 0xFC, 0xFB, 0xFF, 0x7F, 0x40, 0x00, 0x00, 0x8C, 0x00, 0xFD, 
  0xCF, 0x7F, 0x08, 0x18, 0xC0, 0x18, 0xEE, 0xF3, 0x1F, 0x7F, 0x30, 0x00, 
  0x00, 0xFC, 0xFF, 0xFF, 0xCF, 0x7F, 0x0C, 0x18, 0xC0, 0x18, 0xC6, 0xF7, 
  0x3F, 0x0C, 0x10, 0x00, 0x00, 0xFC, 0xFF, 0xFF, 0xDF, 0x7F, 0x0C, 0xF8, 
  0xC3, 0x38, 0x83, 0x71, 0x7F, 0x0D, 0x0C, 0x00, 0x00, 0xF8, 0xFF, 0xFF, 
  0xCF, 0xBF, 0x0C, 0xF8, 0xC7, 0x18, 0x87, 0x73, 0x78, 0x8C, 0x17, 0x00, 
  0x00, 0xF8, 0xFF, 0xFF, 0xE7, 0x3F, 0x0D, 0x18, 0xC0, 0x98, 0xE6, 0x75, 
  0xFC, 0x1F, 0x10, 0x00, 0x00, 0xE8, 0xFF, 0xFF, 0xDF, 0x3F, 0x06, 0x18, 
  0xC0, 0x78, 0xFE, 0xF9, 0x33, 0x0C, 0x10, 0x00, 0x00, 0x10, 0x00, 0xFE, 
  0xC7, 0x3F, 0x9E, 0x18, 0xC0, 0x3A, 0xFE, 0x72, 0x31, 0x0C, 0x0C, 0x00, 
  0x00, 0x60, 0x00, 0xFE, 0x0B, 0x39, 0x06, 0x18, 0xC0, 0x18, 0x9F, 0x70, 
  0x7A, 0x0C, 0x02, 0x00, 0x00, 0x80, 0xFF, 0xFF, 0x2B, 0x24, 0x07, 0x1A, 
  0xC0, 0x38, 0x37, 0x79, 0x3B, 0xEC, 0x01, 0x00, 0x00, 0x00, 0xFF, 0xFF, 
  0xB3, 0xE0, 0x43, 0x1A, 0xC0, 0x1A, 0xFF, 0xFD, 0xFE, 0x7F, 0x00, 0x00, 
  0x00, 0x80, 0xFF, 0xFF, 0xB7, 0xEC, 0xCD, 0x1A, 0xC0, 0xBB, 0xFF, 0xEB, 
  0x30, 0xFC, 0x00, 0x00, 0x00, 0x40, 0xFC, 0xFF, 0xFF, 0xFF, 0x0A, 0x04, 
  0x20, 0x54, 0x07, 0xB3, 0x17, 0x10, 0x02, 0x00, 0x00, 0x40, 0xF8, 0xFF, 
  0xFF, 0x7F, 0x14, 0x05, 0xA0, 0x00, 0x43, 0x73, 0x06, 0x00, 0x03, 0x00, 
  0x00, 0x80, 0x03, 0x38, 0xCA, 0x03, 0x20, 0x0B, 0x90, 0x24, 0xC7, 0x13, 
  0x18, 0xF8, 0x00, 0x00, 0x00, 0x00, 0xF8, 0x0F, 0x49, 0x14, 0xE4, 0x01, 
  0x80, 0x97, 0xFF, 0x97, 0xB0, 0x0F, 0x00, 0x00, 0x00, 0x00, 0x00, 0x04, 
  0x78, 0xA4, 0x15, 0x02, 0x70, 0x68, 0xFF, 0x4E, 0x20, 0x00, 0x00, 0x00, 
  0x00, 0x00, 0x00, 0x02, 0x26, 0x42, 0x22, 0x16, 0x68, 0x44, 0x62, 0x44, 
  0x40, 0x00, 0x00, 0x00, 0x00, 0x00, 0x00, 0x00, 0xD2, 0x46, 0x20, 0x20, 
  0x04, 0x06, 0xC2, 0x4B, 0x80, 0x00, 0x00, 0x00, 0x00, 0x00, 0x00, 0x01, 
  0x51, 0x47, 0xE4, 0x03, 0xC0, 0x67, 0xE3, 0x82, 0x80, 0x00, 0x00, 0x00, 
  0x00, 0x00, 0x00, 0xC1, 0x01, 0xEE, 0x3B, 0x44, 0x10, 0xDC, 0x36, 0x04, 
  0x0B, 0x00, 0x00, 0x00, 0x00, 0x00, 0x00, 0xBD, 0x20, 0x74, 0x23, 0x58, 
  0x1E, 0xC4, 0x6E, 0x00, 0xF9, 0x00, 0x00, 0x00, 0x00, 0x00, 0x00, 0x82, 
  0x00, 0x62, 0x44, 0x68, 0x16, 0x22, 0x06, 0x08, 0x01, 0x00, 0x00, 0x00, 
  0x00, 0x00, 0x00, 0x00, 0x18, 0x40, 0x04, 0x08, 0x10, 0x21, 0x02, 0x18, 
  0x00, 0x00, 0x00, 0x00, 0x00, 0x00, 0x00, 0x40, 0x14, 0x42, 0x80, 0x08, 
  0x00, 0x00, 0x42, 0x28, 0x02, 0x00, 0x00, 0x00, 0x00, 0x00, 0x00, 0x40, 
  0x12, 0x40, 0x08, 0x09, 0x90, 0x11, 0x02, 0x80, 0x02, 0x00, 0x00, 0x00, 
  0x00, 0x00, 0x00, 0xC0, 0x01, 0x42, 0x88, 0x0E, 0x70, 0x11, 0x42, 0x00, 
  0x03, 0x00, 0x00, 0x00, 0x00, 0x00, 0x00, 0x00, 0x00, 0x43, 0x98, 0x0C, 
  0x00, 0x18, 0xC2, 0x10, 0x00, 0x00, 0x00, 0x00, 0x00, 0x00, 0x00, 0x00, 
  0x88, 0xC2, 0x98, 0x00, 0x00, 0x19, 0x47, 0x11, 0x00, 0x00, 0x00, 0x00, 
  0x00, 0x00, 0x00, 0x00, 0x48, 0xA2, 0xA8, 0x00, 0x00, 0x07, 0x45, 0x12, 
  0x00, 0x00, 0x00, 0x00, 0x00, 0x00, 0x00, 0x00, 0x20, 0x12, 0x41, 0x00, 
  0x00, 0x82, 0x48, 0x0C, 0x00, 0x00, 0x00, 0x00, 0x00, 0x00, 0x00, 0x00, 
  0x10, 0x04, 0x07, 0x00, 0x00, 0xE0, 0x30, 0x08, 0x00, 0x00, 0x00, 0x00, 
  0x00, 0x00, 0x00, 0x00, 0x00, 0x0C, 0x02, 0x00, 0x00, 0x40, 0x20, 0x00, 
  0x00, 0x00, 0x00, 0x00, };
